<?xml version="1.0" encoding="utf-8"?>
<!-- Generator: Adobe Illustrator 21.0.0, SVG Export Plug-In . SVG Version: 6.00 Build 0)  -->
<svg version="1.1" id="Layer_1" xmlns="http://www.w3.org/2000/svg" xmlns:xlink="http://www.w3.org/1999/xlink" x="0px" y="0px"
	 viewBox="0 0 2880 1800" style="enable-background:new 0 0 2880 1800;" xml:space="preserve">
<path d="M2117.1,728.8c-4.2,6-12.1,9.1-14,17.9c10.3-5.7,20.9-8.8,27.6-19.1c10.7-16.6,26.5-28.1,43.4-37.9c2.1-1.2,4.6-1.9,6.9-2.6
	c6.9-2.2,14.1-3.8,18.5-10.6c0.3,0.3,0.6,0.6,0.9,1c-1.2,1.9-2.4,3.9-4,6.4c7.2-3.6,13.9-6.9,20.6-10.2c0.2,0.2,0.4,0.5,0.6,0.7
	c-0.7,1-1.5,2.1-2.6,3.6c4.6-1,8.7-2,12.8-2.9c-12,8.1-23.8,16.4-32.2,28.5c8.5-5.3,16.9-10.4,25.1-15.8c9.5-6.2,20.5-5.8,31-7.7
	c2.7-0.5,5.5-1.1,7.7-2.4c9.4-5.7,18.8-11,30.5-10.2c1.4,0.1,3.5-1.6,4.5-3c10.3-14.7,22.1-28,37.4-37.4c6.9-4.3,15.5-6,23.4-8.6
	c5.5-1.7,11.2-2.8,16.8-4.2c12.5-3.2,24.9-6.6,37.4-9.7c9.4-2.3,19-4.3,28.4-6.5c1.3-0.3,2.5-0.7,3.8-1.2
	c13.4-5.1,26.7-10.8,40.4-15.3c14.4-4.8,27.4-12.3,40.4-19.8c4.6-2.7,8.1-7.3,12.1-11c0.9-0.8,1.8-1.6,3.5-1.7
	c-19.4,26.8-38.8,53.6-58.2,80.3c0.5,0.4,1.1,0.9,1.6,1.3c1.6-1.7,3.1-3.5,4.7-5.2c10.5-11.7,22.7-20.9,36.4-28.8
	c9.4-5.4,16.9-14.3,24.8-21.9c5.6-5.4,10.9-11.2,15.8-17.2c4.4-5.4,10.7-4.4,16.3-5.6c0.5-0.1,1.4,0.3,1.8,0.8
	c3.4,4.3,6.8,8.6,9.9,13.1c2.5,3.6,4.6,7.6,6.7,11.4c0.6,1.2,1.4,2.7,1.1,3.9c-2.7,11.9-4.7,24.1-8.5,35.6
	c-3.8,11.7-9.4,22.9-14.2,34.3c-0.2,0.4-0.1,0.9-0.2,2.4c2.3-1.9,4-3.2,5.6-4.7c15.4-14.8,34.5-21.8,54.9-25.8
	c1.8-0.3,3.7-0.7,5.4-0.3c2.9,0.7,5.1,2.1,2.1,5.4c-5.6,6.3-5.9,14.8-9.2,22c-0.7,1.4-1.3,2.8-1.9,4.1c1.2,0.1,2.6,0.1,4.1,0.2
	c0.1,0.4,0.2,0.9,0.3,1.3c-3.7,1.7-7.3,3.3-11,5c0.1,0.3,0.1,0.5,0.2,0.8c3.1-0.6,6.3-1.3,9.4-1.9c0.1,0.5,0.3,1.1,0.4,1.6
	c-1.6,0.7-3.3,1.4-5,2.1c0.3,0.3,0.5,0.7,0.7,0.7c9.1-2,9.8-1.7,11.4,7.7c0.6,3.7,1.1,7.6,0.8,11.3c-0.3,3.8-1.8,7.4-5.8,9.2
	c-3.1,1.4-6.1,3.2-9.1,4.8c0,0.6,0,1.1-0.1,1.7c2.1,0.3,4.2,0.8,6.3,1c2.2,0.2,4.4,0,7.3,0c-3.4,6.2-7.1,10.6-13.1,13.5
	c-4.9,2.4-8.7,6.9-13,10.4c-9.7,7.7-20.8,11.2-33.1,11.1c-4.1,0-8.2,0.5-12.2,0.8c-0.1,0.6-0.1,1.2-0.2,1.8
	c10.2,1.6,20.4,3.3,30.7,5c-11.9,2.4-23.8,4.9-35.7,7.3c0,0.3,0,0.5,0,0.8c2.2,0.6,4.5,1.2,7.5,2c-19.4,5.8-38.1,10.4-57.9,8.8
	c-0.1,0.7-0.1,1.5-0.2,2.2c7.1,1.1,14.1,2.3,22.3,3.6c-12.3,2.6-23.5,5.7-34.9,7.3c-11.6,1.7-23.4,2.1-35.1,3.9
	c9.8,3.3,19.8,3.4,30.1,2.9c-8.2,2.7-16.3,5.5-24.5,8.2c-6,2-12.1,3.4-17.8,6c-8.8,3.8-17.8,4.3-27.2,3.9
	c-13.1-0.6-26.2,0.7-38.6,5.5c-7.7,3-15.2,6.7-23.1,9.2c-8.8,2.8-18,4.4-26.9,6.8c-5,1.4-10.4,2.6-14.7,5.3
	c-15.9,9.7-32.8,14.6-51.5,12.4c-4.7-0.6-9.6-0.1-14.4-0.1c-0.1,0.4-0.3,0.9-0.4,1.3c10.4,4.4,20.8,8.9,31.2,13.3
	c-0.1,0.5-0.3,1-0.4,1.6c-20.5-0.7-40.5-6.1-61.2-7.5c8.3,9,19.3,13.9,29.4,20c-0.2,0.5-0.4,1-0.6,1.5c-7.2-1.6-14.3-3.4-21.6-4.6
	c-7-1.2-14-1.7-21.1-2.6c-4.9-0.6-9.8-1.3-14.7-1.9c-12.1-1.6-24.2-3.2-36.3-5c-20.6-3.1-41.2-5.2-61.4-11.2
	c-16.6-4.9-31.4-13.2-46.8-20.3c-5.4-2.5-10.8-5.1-16.3-7.5c-1.3-0.6-2.8-0.9-4.3-0.9c-20-0.6-40.1-0.9-60.1-1.9
	c-9.2-0.5-18.4-3-27.6-3.4c-12.9-0.6-25.2-4.2-38-5.6c-13-1.4-26-3.2-39-4.9c-8.5-1.1-17-2.3-25.6-3.5c-1.3-0.2-2.8-0.6-3.6-1.4
	c-1.2-1.3-2.9-3.2-2.7-4.5c0.2-1.4,2.5-3.2,4-3.4c5.7-0.6,11.6-1,17.3-0.6c24.8,1.6,49.6,3.4,74.4,5.4c6.4,0.5,12.8,1.9,19.1,3.3
	c9.6,2,18.6-0.7,27-4.4c14.2-6.2,28.7-11,44.2-12.7c4.6-0.5,9-2.3,13.5-3.3c8.1-1.8,16.4-2.5,24.2-5.2c14.6-5,27.2-13.3,37.9-24.6
	c5.1-5.4,10.7-10.5,16.1-15.7C2116.4,728.2,2116.8,728.5,2117.1,728.8z"/>
</svg>
