<?xml version="1.0" encoding="utf-8"?>
<!-- Generator: Adobe Illustrator 21.0.0, SVG Export Plug-In . SVG Version: 6.00 Build 0)  -->
<svg version="1.1" id="Layer_1" xmlns="http://www.w3.org/2000/svg" xmlns:xlink="http://www.w3.org/1999/xlink" x="0px" y="0px"
	 viewBox="0 0 1 1" style="enable-background:new 0 0 1 1;" xml:space="preserve">
<path d="M0.348,0.23C0.342,0.237,0.333,0.241,0.331,0.251c0.019-0.005,0.03-0.018,0.042-0.032c0.016-0.02,0.037-0.035,0.062-0.042
	C0.438,0.175,0.44,0.173,0.443,0.172C0.445,0.17,0.446,0.167,0.448,0.165C0.449,0.166,0.449,0.166,0.45,0.167
	C0.448,0.169,0.447,0.172,0.445,0.175C0.454,0.17,0.462,0.166,0.47,0.162c0,0,0,0.001,0.001,0.001
	C0.47,0.164,0.469,0.166,0.467,0.168c0.006-0.001,0.011-0.002,0.016-0.004c-0.015,0.01-0.029,0.02-0.039,0.035
	c0.002-0.001,0.003-0.002,0.005-0.003c0.002-0.001,0.003-0.003,0.005-0.004c0.018-0.014,0.037-0.022,0.06-0.022
	c0.002,0,0.005-0.001,0.007-0.002C0.533,0.16,0.545,0.153,0.56,0.155c0.002,0,0.004-0.002,0.005-0.004
	C0.577,0.133,0.592,0.117,0.61,0.106C0.619,0.1,0.63,0.098,0.64,0.095C0.646,0.093,0.652,0.091,0.658,0.09
	c0.013-0.003,0.026-0.006,0.04-0.009C0.713,0.077,0.727,0.074,0.741,0.07C0.746,0.068,0.75,0.066,0.755,0.064
	c0.013-0.005,0.026-0.01,0.039-0.014c0.018-0.006,0.034-0.015,0.05-0.024c0.006-0.003,0.01-0.009,0.015-0.013
	C0.86,0.011,0.86,0.009,0.861,0.008C0.862,0.009,0.863,0.009,0.863,0.01C0.84,0.043,0.816,0.075,0.792,0.108
	C0.793,0.109,0.794,0.11,0.794,0.11c0.001-0.002,0.002-0.003,0.004-0.005C0.811,0.09,0.827,0.078,0.845,0.068
	c0.011-0.006,0.02-0.017,0.03-0.027C0.882,0.034,0.888,0.027,0.894,0.02C0.9,0.013,0.908,0.015,0.915,0.013
	c0.001,0,0.003,0.002,0.004,0.003c0.007,0.009,0.013,0.019,0.019,0.028c0.001,0.001,0.001,0.003,0.001,0.005
	C0.934,0.065,0.932,0.08,0.927,0.095C0.922,0.109,0.916,0.122,0.91,0.135c0,0,0,0.001,0,0.003c0.004-0.003,0.007-0.006,0.01-0.008
	C0.939,0.112,0.962,0.104,0.986,0.1c0.002,0,0.005-0.001,0.006,0c0.001,0.001,0.003,0.005,0.002,0.005
	C0.987,0.113,0.987,0.124,0.982,0.133C0.981,0.135,0.981,0.137,0.98,0.139c0.002,0,0.003,0,0.005,0c0,0.001,0,0.001,0,0.002
	C0.981,0.142,0.976,0.144,0.972,0.146c0,0,0,0.001,0,0.001c0.001,0,0.002,0,0.003-0.001c0.002,0,0.003-0.001,0.005-0.001
	c0.001,0,0.002,0,0.004,0.002C0.982,0.148,0.98,0.149,0.978,0.15c0.001,0,0.001,0.001,0.001,0.001
	C0.99,0.148,0.991,0.149,0.993,0.16c0.001,0.005,0.001,0.009,0.001,0.014c0,0.005-0.002,0.009-0.007,0.011
	C0.983,0.187,0.979,0.189,0.975,0.191c0.005,0.007,0.011,0,0.016,0.004C0.989,0.201,0.985,0.206,0.979,0.209
	C0.974,0.213,0.968,0.217,0.963,0.221C0.95,0.232,0.936,0.237,0.919,0.237c-0.005,0-0.01,0.001-0.015,0.001c0,0.001,0,0.001,0,0.002
	c0.012,0.002,0.025,0.004,0.038,0.006C0.927,0.249,0.913,0.252,0.896,0.255c0.004,0.001,0.007,0.002,0.011,0.003
	C0.883,0.266,0.86,0.271,0.836,0.269c0,0.001,0,0.002,0,0.003c0.009,0.001,0.017,0.003,0.026,0.004c0,0.001,0,0.001,0,0.002
	C0.834,0.282,0.806,0.286,0.776,0.291C0.79,0.294,0.802,0.294,0.815,0.294c-0.01,0.003-0.02,0.007-0.03,0.01
	C0.777,0.306,0.769,0.308,0.762,0.311C0.752,0.316,0.741,0.316,0.729,0.316C0.713,0.315,0.697,0.317,0.681,0.323
	C0.672,0.327,0.663,0.331,0.654,0.334C0.645,0.337,0.637,0.34,0.628,0.341C0.616,0.342,0.605,0.346,0.595,0.353
	C0.578,0.363,0.56,0.366,0.541,0.364C0.536,0.363,0.532,0.363,0.527,0.363c-0.002,0-0.003,0.001-0.005,0.001
	c0,0.001,0,0.001,0,0.002C0.534,0.371,0.547,0.376,0.56,0.381c0,0.001,0,0.001,0,0.002c-0.025,0-0.05-0.008-0.075-0.01
	c0,0.001-0.001,0.002-0.001,0.003C0.496,0.384,0.508,0.392,0.52,0.399c0,0,0,0.001-0.001,0.001C0.508,0.398,0.496,0.395,0.484,0.393
	C0.48,0.392,0.477,0.392,0.473,0.392C0.464,0.391,0.455,0.39,0.446,0.389C0.432,0.387,0.419,0.385,0.405,0.383
	C0.38,0.38,0.355,0.377,0.331,0.37C0.31,0.364,0.292,0.354,0.273,0.345c-0.007-0.003-0.014-0.006-0.02-0.009
	C0.251,0.335,0.248,0.335,0.246,0.334C0.222,0.334,0.197,0.333,0.173,0.332C0.162,0.332,0.151,0.329,0.14,0.328
	C0.124,0.327,0.109,0.323,0.093,0.321C0.077,0.32,0.061,0.317,0.045,0.315c-0.01-0.001-0.02-0.003-0.031-0.004
	c-0.002,0-0.003-0.001-0.004-0.002C0.009,0.308,0.006,0.305,0.007,0.304C0.007,0.302,0.01,0.3,0.012,0.3
	c0.007-0.001,0.015-0.001,0.022-0.001C0.062,0.301,0.091,0.303,0.12,0.305c0.009,0.001,0.018,0.002,0.027,0.004
	c0.011,0.002,0.022-0.001,0.031-0.005c0.018-0.008,0.037-0.014,0.056-0.016c0.017-0.002,0.033-0.006,0.049-0.011
	c0.014-0.005,0.028-0.014,0.039-0.025c0.008-0.008,0.016-0.016,0.024-0.024C0.347,0.229,0.347,0.229,0.348,0.23z"/>
</svg>
